<?xml version="1.0" encoding="UTF-8"?>
<svg id="OBJECTS" xmlns="http://www.w3.org/2000/svg" version="1.1" viewBox="0 0 127.12 127.12">
  <!-- Generator: Adobe Illustrator 30.0.0, SVG Export Plug-In . SVG Version: 2.1.1 Build 123)  -->
  <defs>
    <style>
      .st0 {
        fill: #fff;
      }

      .st1 {
        fill: #f05e9c;
      }
    </style>
  </defs>
  <g>
    <path class="st1" d="M127.12,63.55c0,8.79-1.79,17.15-4.99,24.77-7.23,17.08-21.71,30.33-39.6,35.93-5.99,1.85-12.36,2.87-18.97,2.87C28.45,127.12,0,98.67,0,63.56S28.45,0,63.56,0s63.56,28.45,63.56,63.56h0Z"/>
    <path class="st0" d="M63.56,123.55c-33.09,0-59.99-26.91-59.99-59.99S30.48,3.57,63.56,3.57s59.99,26.91,59.99,59.99c0,8.1-1.59,15.97-4.71,23.39-6.9,16.27-20.51,28.63-37.37,33.91-5.8,1.79-11.82,2.71-17.9,2.71h0v-.02h-.01ZM63.56,7.12C32.45,7.12,7.13,32.44,7.13,63.55s25.32,56.43,56.43,56.43c5.72,0,11.39-.85,16.85-2.54,15.85-4.97,28.67-16.59,35.15-31.89,2.94-6.97,4.43-14.38,4.43-21.99,0-31.11-25.32-56.43-56.43-56.43h0Z"/>
  </g>
  <polygon class="st0" points="66.44 75.48 60.42 98.04 31.1 29.1 96.01 59.18 73.45 66.95 96.01 91.51 87.99 98.04 66.44 75.48"/>
</svg>