<?xml version="1.0" encoding="UTF-8"?>
<svg id="Layer_1" data-name="Layer 1" xmlns="http://www.w3.org/2000/svg" viewBox="0 0 222.08 222.07">
  <defs>
    <style>
      .cls-1 {
        fill: #fdfeff;
      }

      .cls-2 {
        fill: #fff;
      }

      .cls-3 {
        fill: #f05e9c;
      }

      .cls-4 {
        fill: #848585;
      }

      .cls-5 {
        fill: #ebe8ea;
      }

      .cls-6 {
        fill: none;
        stroke: #231f20;
        stroke-miterlimit: 10;
        stroke-width: .3px;
      }

      .cls-7 {
        fill: #dbd9de;
      }
    </style>
  </defs>
  <path class="cls-7" d="M115.31,83.84c-4.76,2.37-10.54.44-12.92-4.32-2.38-4.77-.44-10.55,4.32-12.92,4.77-2.37,10.55-.44,12.92,4.32,2.38,4.77.44,10.55-4.32,12.92M80.67,14.38c-33.6,16.76-47.25,57.58-30.49,91.18,16.76,33.6,57.58,47.25,91.18,30.49,33.6-16.76,47.25-57.58,30.49-91.18C155.09,11.27,114.27-2.38,80.67,14.38"/>
  <path class="cls-1" d="M60.17,30.05c-.75.75-15.2,15.4-16.86,38.83,1.36-14.29,7.21-27.96,16.86-38.83M105.75,67.14c-1.14.74-2.08,1.69-2.79,2.78,1.61-.5,3.62-.99,3.91-1.86l-1.12-.92ZM101.44,74.1c-.09.73-.09,1.47,0,2.21l1.92-.09s-1.16-.86-1.92-2.12"/>
  <path class="cls-5" d="M60.21,30.02s-.01.01-.03.03c-9.65,10.86-15.5,24.53-16.86,38.83-.23,3.25-.21,6.66.12,10.24l58.01-2.8c-.09-.75-.09-1.49,0-2.22-.54-.89-.88-1.99-.47-3.13.15-.42.99-.73,1.99-1.05.71-1.08,1.65-2.04,2.79-2.78L60.21,30.02Z"/>
  <path class="cls-1" d="M178.73,68.89h0c1.69,18.11-4.01,36.24-15.68,50.11l.17.15s18.54-20.24,15.52-50.26M120.44,73.21l-.45.03s.91,1.96-.52,6.6c1.09-2,1.46-4.35.97-6.64"/>
  <path class="cls-5" d="M178.72,68.89l-58.28,4.31c.49,2.29.12,4.65-.97,6.64-.05.15-.09.28-.14.43l43.71,38.73c11.67-13.88,17.37-31.99,15.68-50.11"/>
  <path class="cls-4" d="M114.46,82.13c-3.81,1.9-8.46.35-10.36-3.46-1.9-3.82-.35-8.46,3.46-10.36,3.81-1.9,8.46-.35,10.36,3.46,1.9,3.81.35,8.46-3.46,10.36M101.97,57.09c-10.01,4.99-14.08,17.16-9.08,27.17,4.99,10,17.16,14.08,27.17,9.08,10.01-5,14.08-17.16,9.08-27.17-4.99-10.01-17.16-14.07-27.17-9.08"/>
  <path class="cls-3" d="M53.5,99.42s-46.28,0-46.28,46.28v22.88s0,46.28,46.28,46.28h115.09s46.28,0,46.28-46.28v-22.88s0-46.28-46.28-46.28H53.5Z"/>
  <path class="cls-2" d="M159.57,198.02v-10.34c0-17.37.4-34.76-.14-52.12-.66-21.53-25.94-38.36-53.18-36-22.62,1.96-39.81,14.82-43.31,32.46-.34,1.75-.48,3.53-.48,5.3-.03,16.39-.02,32.78-.02,49.18v11.56c-1.53-.17-2.92-.26-4.28-.48-15.37-2.43-24.03-10.82-24.28-23.58-.12-6.11,1.34-11.89,6.31-16.84,2.55-2.54,5.73-4.48,9.45-5.84,1.1-.4,1.39-.87,1.39-1.78.04-5.51-.27-11.05.36-16.52,1.51-13.19,9.06-23.98,22.24-32.31,11.71-7.4,25.16-10.76,40.12-10.27,12.59.41,23.93,3.68,33.91,9.78,13.07,8.01,20.78,18.48,22.81,31.34.77,4.89.67,9.88.47,14.82-.13,2.96.65,4.69,4.28,6.29,7.87,3.45,11.46,9.36,12.59,16.22.79,4.83.51,9.63-1.58,14.24-3.9,8.62-12.24,12.97-23.32,14.56-1.03.15-2.08.2-3.33.31"/>
  <path class="cls-6" d="M159.57,198.02v-10.34c0-17.37.4-34.76-.14-52.12-.66-21.53-25.94-38.36-53.18-36-22.62,1.96-39.81,14.82-43.31,32.46-.34,1.75-.48,3.53-.48,5.3-.03,16.39-.02,32.78-.02,49.18v11.56c-1.53-.17-2.92-.26-4.28-.48-15.37-2.43-24.03-10.82-24.28-23.58-.12-6.11,1.34-11.89,6.31-16.84,2.55-2.54,5.73-4.48,9.45-5.84,1.1-.4,1.39-.87,1.39-1.78.04-5.51-.27-11.05.36-16.52,1.51-13.19,9.06-23.98,22.24-32.31,11.71-7.4,25.16-10.76,40.12-10.27,12.59.41,23.93,3.68,33.91,9.78,13.07,8.01,20.78,18.48,22.81,31.34.77,4.89.67,9.88.47,14.82-.13,2.96.65,4.69,4.28,6.29,7.87,3.45,11.46,9.36,12.59,16.22.79,4.83.51,9.63-1.58,14.24-3.9,8.62-12.24,12.97-23.32,14.56-1.03.15-2.08.2-3.33.31Z"/>
  <path class="cls-2" d="M74.95,150.79h-5.39c-2.22,0-4.05,1.75-4.05,3.89v39.48c0,2.14,1.82,3.89,4.05,3.89h5.39c2.23,0,4.05-1.75,4.05-3.89v-39.48c0-2.14-1.82-3.89-4.05-3.89"/>
  <path class="cls-6" d="M74.95,150.79h-5.39c-2.22,0-4.05,1.75-4.05,3.89v39.48c0,2.14,1.82,3.89,4.05,3.89h5.39c2.23,0,4.05-1.75,4.05-3.89v-39.48c0-2.14-1.82-3.89-4.05-3.89Z"/>
  <path class="cls-2" d="M152.56,150.79h-5.39c-2.22,0-4.05,1.75-4.05,3.89v39.48c0,2.14,1.82,3.89,4.05,3.89h5.39c2.23,0,4.05-1.75,4.05-3.89v-39.48c0-2.14-1.82-3.89-4.05-3.89"/>
  <path class="cls-6" d="M152.56,150.79h-5.39c-2.22,0-4.05,1.75-4.05,3.89v39.48c0,2.14,1.82,3.89,4.05,3.89h5.39c2.23,0,4.05-1.75,4.05-3.89v-39.48c0-2.14-1.82-3.89-4.05-3.89Z"/>
</svg>